name C:\Users\r0593348\3dpredictsim\Results\Batchsim_tmt_linear\Pog_s1_tmt_bCst_d05_k2000_ig24_act.mot
datacolumns 128
datarows 4
range 0.00000000 0.03515107
endheader
time	pelvis_tilt	pelvis_list	pelvis_rotation	pelvis_tx	pelvis_ty	pelvis_tz	hip_flexion_l	hip_adduction_l	hip_rotation_l	hip_flexion_r	hip_adduction_r	hip_rotation_r	knee_angle_l	knee_angle_r	ankle_angle_l	ankle_angle_r	subtalar_angle_l	subtalar_angle_r	tmt_angle_l	tmt_angle_r	mtp_angle_l	mtp_angle_r	lumbar_extension	lumbar_bending	lumbar_rotation	arm_flex_l	arm_add_l	arm_rot_l	arm_flex_r	arm_add_r	arm_rot_r	elbow_flex_l	elbow_flex_r	pro_sup_l	pro_sup_r	glut_med1_l/activation	glut_med2_l/activation	glut_med3_l/activation	glut_min1_l/activation	glut_min2_l/activation	glut_min3_l/activation	semimem_l/activation	semiten_l/activation	bifemlh_l/activation	bifemsh_l/activation	sar_l/activation	add_long_l/activation	add_brev_l/activation	add_mag1_l/activation	add_mag2_l/activation	add_mag3_l/activation	tfl_l/activation	pect_l/activation	grac_l/activation	glut_max1_l/activation	glut_max2_l/activation	glut_max3_l/activation	iliacus_l/activation	psoas_l/activation	quad_fem_l/activation	gem_l/activation	peri_l/activation	rect_fem_l/activation	vas_med_l/activation	vas_int_l/activation	vas_lat_l/activation	med_gas_l/activation	lat_gas_l/activation	soleus_l/activation	tib_post_l/activation	flex_dig_l/activation	flex_hal_l/activation	tib_ant_l/activation	per_brev_l/activation	per_long_l/activation	per_tert_l/activation	ext_dig_l/activation	ext_hal_l/activation	ercspn_l/activation	intobl_l/activation	extobl_l/activation	glut_med1_r/activation	glut_med2_r/activation	glut_med3_r/activation	glut_min1_r/activation	glut_min2_r/activation	glut_min3_r/activation	semimem_r/activation	semiten_r/activation	bifemlh_r/activation	bifemsh_r/activation	sar_r/activation	add_long_r/activation	add_brev_r/activation	add_mag1_r/activation	add_mag2_r/activation	add_mag3_r/activation	tfl_r/activation	pect_r/activation	grac_r/activation	glut_max1_r/activation	glut_max2_r/activation	glut_max3_r/activation	iliacus_r/activation	psoas_r/activation	quad_fem_r/activation	gem_r/activation	peri_r/activation	rect_fem_r/activation	vas_med_r/activation	vas_int_r/activation	vas_lat_r/activation	med_gas_r/activation	lat_gas_r/activation	soleus_r/activation	tib_post_r/activation	flex_dig_r/activation	flex_hal_r/activation	tib_ant_r/activation	per_brev_r/activation	per_long_r/activation	per_tert_r/activation	ext_dig_r/activation	ext_hal_r/activation	ercspn_r/activation	intobl_r/activation	extobl_r/activation	
          0.00000000	         -2.92904061	         -1.40523290	          6.92465888	          0.00000000	          0.85871514	         -0.00203588	        -15.04498393	         -1.72283194	          7.49556831	         32.45705465	          1.47464849	         -1.10826830	        -16.84199974	        -17.10766803	         -6.84930515	          8.22664731	         13.67002970	          1.43215322	          0.50093051	          0.01347488	         29.15105334	         -0.09853093	         -0.49575359	         -0.62278727	         -2.33983840	          3.51685000	        -13.49382916	         16.71245910	        -11.15797558	        -13.48264690	          6.46041576	         41.75413576	         18.12504423	         86.51662706	         86.51662706	          0.17103573	          0.08255516	          0.06783681	          0.21406914	          0.12876854	          0.08360304	          0.05000307	          0.05000039	          0.05000037	          0.05000106	          0.09195476	          0.05792959	          0.05000061	          0.05000078	          0.05000119	          0.05000055	          0.17792447	          0.05002174	          0.05000259	          0.05001059	          0.05000404	          0.05000134	          0.34625073	          0.53454546	          0.05000166	          0.05000305	          0.05000148	          0.19963903	          0.08999527	          0.09030034	          0.08538874	          0.15111036	          0.22973347	          0.05976393	          0.15752794	          0.17673513	          0.19923197	          0.05000033	          0.29029207	          0.30527665	          0.05000015	          0.23775901	          0.05000041	          0.05000002	          0.05000009	          0.05000009	          0.05000059	          0.05000037	          0.05000070	          0.05000064	          0.05000065	          0.05000189	          0.05976451	          0.05976406	          0.19038338	          0.05000118	          0.05282006	          0.07017759	          0.12173270	          0.15647497	          0.15714255	          0.13086214	          0.05000203	          0.05975197	          0.05976272	          0.05000061	          0.07348224	          0.11017294	          0.05976368	          0.05859371	          0.15484175	          0.05000853	          0.05015467	          0.05001497	          0.12722731	          0.12920361	          0.11099828	          0.05976416	          0.05976414	          0.05976417	          0.05000015	          0.05005082	          0.05976368	          0.56407143	          0.33044643	          0.18581305	          0.31407670	          0.57969075	          0.36149063	          0.05326676	          0.11707796	          0.10338146	
          0.01171702	         -2.92135851	         -1.33836320	          7.08781271	          0.01857386	          0.85748400	         -0.00172899	        -15.25995047	         -1.90151884	          7.30513709	         31.78493314	          1.70821440	         -0.92059511	        -18.06084404	        -17.03161563	         -9.40176149	          7.67751442	         14.13793856	          1.04009389	          0.45594053	          0.02162307	         30.46751985	         -0.09807742	         -0.25330751	         -0.48850405	         -2.42078020	          3.16030551	        -13.53891992	         17.02531378	        -12.41764302	        -13.46732980	          6.31938078	         42.75423021	         18.09433220	         86.51662706	         86.51662706	          0.14309227	          0.06906758	          0.05976461	          0.17909501	          0.10773065	          0.06994436	          0.05000346	          0.05000021	          0.05000033	          0.05000018	          0.07693158	          0.14819257	          0.14764905	          0.17114295	          0.05017542	          0.05003408	          0.14885551	          0.05016243	          0.05000123	          0.05000695	          0.05000466	          0.05000765	          0.28968084	          0.44721236	          0.07128722	          0.06594983	          0.05976500	          0.16702231	          0.10642620	          0.11429833	          0.07143916	          0.12642217	          0.19219996	          0.05000003	          0.13179126	          0.14786046	          0.16668178	          0.24419985	          0.30966645	          0.28796034	          0.46663205	          0.38329402	          0.22691461	          0.05828413	          0.07143509	          0.05004679	          0.06206774	          0.06999826	          0.08772660	          0.05000288	          0.05000460	          0.05000172	          0.05000032	          0.05000028	          0.15927891	          0.05000014	          0.05000050	          0.05871230	          0.10184443	          0.28848154	          0.22285281	          0.13526166	          0.05000162	          0.05000186	          0.05000057	          0.05976437	          0.11328752	          0.13070632	          0.05000018	          0.05000038	          0.32800875	          0.07141512	          0.06215960	          0.07143517	          0.24100916	          0.23603816	          0.20646267	          0.05000000	          0.05000001	          0.05000000	          0.05000005	          0.05000054	          0.05000025	          0.69813972	          0.33044805	          0.19560595	          0.60281403	          0.63140671	          0.40107391	          0.05000001	          0.09794994	          0.08649115	
          0.02343405	         -2.90782102	         -1.27807662	          7.21954558	          0.03733733	          0.85600538	         -0.00144319	        -15.29032070	         -2.04855099	          7.11206810	         30.97251969	          1.92019303	         -0.66375401	        -19.63243014	        -17.56370830	        -11.74682803	          7.11376304	         14.56844017	          0.62897421	          0.37765813	         -0.01680612	         30.98689698	         -0.16188421	         -0.00113294	         -0.33570139	         -2.48732243	          2.74145422	        -13.58969483	         17.26982037	        -13.65228852	        -13.46435896	          6.26375506	         43.73181165	         18.02867677	         86.51662706	         86.51662706	          0.14783897	          0.05778358	          0.05000061	          0.14983500	          0.09012990	          0.05851709	          0.05003477	          0.05976923	          0.06524888	          0.05000173	          0.06436299	          0.15840536	          0.30295048	          0.16121232	          0.08060060	          0.11860257	          0.12453578	          0.06327694	          0.05977363	          0.05006277	          0.05037518	          0.05976733	          0.24235325	          0.37414784	          0.05976452	          0.05517565	          0.05000075	          0.13973445	          0.08903849	          0.09562448	          0.05976757	          0.10576751	          0.16079862	          0.05000001	          0.11025941	          0.12370330	          0.13944959	          0.43762355	          0.39933639	          0.29999064	          0.70054596	          0.52094904	          0.39759552	          0.07453122	          0.05976415	          0.05000036	          0.24480336	          0.25107487	          0.34480324	          0.05000086	          0.05000053	          0.05000048	          0.07920393	          0.05000112	          0.13557527	          0.05000025	          0.05000099	          0.07143544	          0.13190359	          0.24135057	          0.21869843	          0.16247722	          0.05000035	          0.07143319	          0.10553934	          0.05000032	          0.16994614	          0.16309832	          0.05000084	          0.05000031	          0.27441931	          0.05974809	          0.24448416	          0.05976421	          0.20163360	          0.19747486	          0.17273129	          0.05976421	          0.05976424	          0.05976419	          0.05140000	          0.05976428	          0.05976430	          0.60282321	          0.34990526	          0.17772558	          0.50432727	          0.62712284	          0.33554729	          0.05325605	          0.08538545	          0.07236036	
          0.03515107	         -2.89135790	         -1.22345475	          7.31461858	          0.05599253	          0.85430831	         -0.00116087	        -15.11091325	         -2.16185536	          6.93266914	         30.06524013	          2.12077255	         -0.37794379	        -21.58367271	        -18.20289732	        -13.58433017	          6.84879579	         14.95697359	          0.18568529	          0.28489213	         -0.00875208	         30.06033433	         -0.17014049	          0.23390998	         -0.16730665	         -2.53851713	          2.30621926	        -13.64440357	         17.45374670	        -14.79630651	        -13.47772325	          6.33580417	         44.67255265	         17.88975077	         86.51662706	         86.51662706	          0.23276845	          0.05000053	          0.05000024	          0.14809093	          0.07540479	          0.05000172	          0.05000665	          0.05000435	          0.05458880	          0.05000026	          0.05384830	          0.13252570	          0.25345535	          0.13487409	          0.06743325	          0.09922593	          0.10418942	          0.05294645	          0.05000832	          0.05000331	          0.05000226	          0.05000347	          0.20275799	          0.36941786	          0.05000048	          0.05000118	          0.05000037	          0.11690485	          0.08538427	          0.08538420	          0.05000310	          0.08848737	          0.13452760	          0.05000002	          0.09224541	          0.10349294	          0.11666658	          0.36612536	          0.33409453	          0.26212685	          0.63943791	          0.64672969	          0.33263715	          0.11017661	          0.05000002	          0.05000006	          0.32074047	          0.39246624	          0.48791968	          0.22150911	          0.22930759	          0.35368145	          0.06626440	          0.09190221	          0.11342521	          0.07143510	          0.05000195	          0.05976452	          0.11035343	          0.20191951	          0.21018122	          0.17339555	          0.05000030	          0.05976335	          0.08829815	          0.26277220	          0.21896831	          0.18605981	          0.05000030	          0.05000025	          0.22958522	          0.05000123	          0.28403017	          0.05000006	          0.20866684	          0.25688108	          0.22040551	          0.05000004	          0.05000008	          0.05000001	          0.05000001	          0.05000026	          0.05000020	          0.75134138	          0.29273845	          0.14868914	          0.72170921	          0.68951110	          0.50544716	          0.06835112	          0.07143538	          0.06053824	
